<svg xmlns="http://www.w3.org/2000/svg" width="17" height="17" viewBox="0 0 17 17">
    <path fill="#8196a7" d="M16.338 9.364l-7.284 2.994a.972.972 0 0 1-.576.134.971.971 0 0 1-.578-.129L.618 9.369A1.006 1.006 0 0 1 .25 8.008a.976.976 0 0 1 1.341-.374l.009.006 6.875 2.795 6.877-2.795a.975.975 0 0 1 1.363.283 1.007 1.007 0 0 1-.279 1.383.972.972 0 0 1-.098.058zm.47-5.164c-.006.032-.012.063-.021.094s-.021.058-.031.086a1 1 0 0 1-.043.1c0 .01-.008.02-.014.03l-.032.045a1 1 0 0 1-.063.088.644.644 0 0 1-.061.065c-.02.018-.045.045-.07.065a.968.968 0 0 1-.087.063c-.016.01-.029.023-.045.033l-.024.01a.969.969 0 0 1-.223.092L9.056 7.865A.972.972 0 0 1 8.478 8a.971.971 0 0 1-.578-.127L.864 4.978a.975.975 0 0 1-.223-.095l-.024-.01C.6 4.863.589 4.851.573 4.84a.972.972 0 0 1-.086-.063.932.932 0 0 1-.073-.07C.388 4.68.372 4.666.353 4.642a.975.975 0 0 1-.063-.088c-.01-.016-.023-.029-.033-.046a.192.192 0 0 1-.013-.03 1 1 0 0 1-.044-.1.777.777 0 0 1-.031-.084.93.93 0 0 1-.021-.094c-.006-.031-.013-.064-.015-.091s0-.063 0-.1v-.1a.585.585 0 0 1 .016-.1.778.778 0 0 1 .02-.094c.009-.031.021-.058.031-.086a1 1 0 0 1 .043-.1.03.03 0 0 0 .014-.019c0-.01.022-.03.032-.046a.975.975 0 0 1 .064-.088.566.566 0 0 1 .061-.066c.02-.018.048-.049.073-.07a.972.972 0 0 1 .086-.063c.016-.01.027-.023.045-.033l.024-.01a.976.976 0 0 1 .222-.091L7.9.149a.971.971 0 0 1 .578-.133.971.971 0 0 1 .576.129l7.037 2.895a.979.979 0 0 1 .223.092l.024.01c.017.01.029.022.045.033a.986.986 0 0 1 .087.063l.07.065a.9.9 0 0 1 .065.071.975.975 0 0 1 .063.088c.01.016.023.029.033.046s.008.02.014.03a1 1 0 0 1 .043.1.761.761 0 0 1 .032.086c.01.027.01.06.02.092a.987.987 0 0 1 .016.1v.2a1.258 1.258 0 0 1-.018.084zm-8.33-2.124l-4.75 1.933 4.75 1.932 4.75-1.932zM1.6 12.127l6.875 2.795 6.875-2.795a.975.975 0 0 1 1.346.356 1.006 1.006 0 0 1-.351 1.366l-.011.007-7.281 2.994a.972.972 0 0 1-.575.134.972.972 0 0 1-.578-.129L.618 13.861a1.009 1.009 0 0 1-.362-1.366.978.978 0 0 1 1.344-.368z"></path>
</svg>