<svg fill="#8196a7" xmlns="http://www.w3.org/2000/svg" width="16" height="16" viewBox="0 0 16 16"><path d="M16 14.5a1.5 1.5 0 0 1-1.5 1.5h-13A1.5 1.5 0 0 1 0 14.5V1a1 1 0 0 1 2 0v1h5V1a1 1 0 0 1 2 0v1h5V1a1 1 0 0 1 2 0zM2 13a1 1 0 0 0 1 1h10a1 1 0 0 0 1-1V5a1 1 0 0 0-1-1H3a1 1 0 0 0-1 1v8zm9.5-1a1 1 0 1 1 1-1 1 1 0 0 1-1 1zm0-4a1 1 0 1 1 1-1 1 1 0 0 1-1 1zM8 12a1 1 0 1 1 1-1 1 1 0 0 1-1 1zm0-4a1 1 0 1 1 1-1 1 1 0 0 1-1 1zm-3.5 4a1 1 0 1 1 1-1 1 1 0 0 1-1 1zm0-4a1 1 0 1 1 1-1 1 1 0 0 1-1 1z"></path></svg>