<svg fill="#8196a7" xmlns="http://www.w3.org/2000/svg" width="19" height="16" viewBox="0 0 19 16"><path d="M.75 10h6.5a.75.75 0 0 1 .75.75v.5a.75.75 0 0 1-.75.75H.75a.75.75 0 0 1-.75-.75v-.5A.75.75 0 0 1 .75 10m9.5-7H.75A.75.75 0 0 1 0 2.25v-.5A.75.75 0 0 1 .75 1h9.5a.75.75 0 0 1 .75.75v.5a.75.75 0 0 1-.75.75m0 4.5H.75A.75.75 0 0 1 0 6.75v-.5a.75.75 0 0 1 .75-.75h9.5a.75.75 0 0 1 .75.75v.5a.75.75 0 0 1-.75.75m5.583 4.553c.037.112.064.228.091.345l-.055-.421c-.014.024-.021.053-.036.076M13 12a1 1 0 1 0 0 2 1 1 0 0 0 0-2m4.654-5.671c-.376.521-.575.297-.463 0 .297-.781 1.23-1.979-1.191-2.356V11.5c0 .02-.007.037-.008.057v1.353c.001.031.008.059.008.09a3 3 0 1 1-3-3c.352 0 .686.072 1 .184V1c0-.299.134-.565.343-.748L14.31 0h1.681c-.313 2.46 4.353 2.601 1.663 6.329"></path></svg>