<svg fill="#8196a7" xmlns="http://www.w3.org/2000/svg" width="16" height="18" viewBox="0 0 16 18"><path d="M8 9.5c-3.08 1.87-3 4.41-3 4.41A3.07 3.07 0 0 0 8 17a3.07 3.07 0 0 0 3-3.09s.09-2.54-3-4.41zM8 15a1.33 1.33 0 0 1-1-1.5A1.33 1.33 0 0 1 8 12a1.33 1.33 0 0 1 1 1.5A1.33 1.33 0 0 1 8 15zm4.87 3zm1-12.19a.77.77 0 0 0-.87-.28.78.78 0 0 0-.51.78 1.2 1.2 0 0 1-.63 1c-.95-4.12-5.51-7-5.73-7.18a.76.76 0 0 0-.86 0A.78.78 0 0 0 5 1a1.88 1.88 0 0 0 .49.71c.31.37 1.23.23-2.88 5C.64 8.93-.23 11.19 0 13.35a6.91 6.91 0 0 0 2.72 4.52.76.76 0 0 0 .48.13h.36a.9.9 0 0 0 .89-.9.86.86 0 0 0-.7-1A5 5 0 0 1 2 13.05c-.2-1.59.49-3.31 2-5.12C6.23 5.34 7 4.69 7.2 3.5c1.38 1.2 3 3.14 3 5.34a.72.72 0 0 0 .32.58.71.71 0 0 0 .65.07A4.91 4.91 0 0 0 13 8.26c.88 1.91 2 4.68-.88 7.87h.1a.85.85 0 0 0-.69 1 .9.9 0 0 0 .89.9h.36a.77.77 0 0 0 .55-.23c5.61-5.8.67-11.91.58-11.99zM3.2 18z"></path></svg>